<svg xmlns="http://www.w3.org/2000/svg" width="256" height="256" viewBox="0 0 100 100"><rect width="100" height="100" rx="20" fill="#171717"></rect><path fill="#fff" d="M31.00 60.62L31.12 60.62L47.26 28.60L59.65 28.60L50.60 71.43L42.40 71.43L46.65 51.16Q48.20 43.92 49.72 38.24L49.72 38.24L49.58 38.24L32.91 71.43L24.67 71.43L22.89 38.24L22.77 38.24Q22.45 40.82 21.66 45.00Q20.86 49.19 16.18 71.43L16.18 71.43L8.12 71.43L17.17 28.60L29.01 28.60L31.00 60.62ZM87.08 58.77L87.08 58.77Q87.08 64.90 82.74 68.46Q78.40 72.02 70.99 72.02L70.99 72.02Q64.52 72.02 60.56 69.38L60.56 69.38L60.56 61.35Q66.22 64.52 71.05 64.52L71.05 64.52Q74.33 64.52 76.18 63.27Q78.02 62.03 78.02 59.86L78.02 59.86Q78.02 58.60 77.63 57.65Q77.23 56.69 76.50 55.87Q75.77 55.05 72.87 52.89L72.87 52.89Q68.82 49.99 67.18 47.14Q65.54 44.30 65.54 41.02L65.54 41.02Q65.54 37.24 67.36 34.27Q69.17 31.29 72.53 29.64Q75.88 27.98 80.25 27.98L80.25 27.98Q86.61 27.98 91.88 30.88L91.88 30.88L88.69 37.71Q84.12 35.54 80.25 35.54L80.25 35.54Q77.82 35.54 76.26 36.86Q74.71 38.18 74.71 40.35L74.71 40.35Q74.71 42.13 75.68 43.47Q76.65 44.80 80.01 47.00L80.01 47.00Q83.56 49.34 85.32 52.17Q87.08 55.00 87.08 58.77Z"></path></svg>